<?xml version="1.0" encoding="utf-8"?>
<!-- Generator: Adobe Illustrator 27.0.0, SVG Export Plug-In . SVG Version: 6.00 Build 0)  -->
<svg version="1.1" id="Capa_1" xmlns="http://www.w3.org/2000/svg" xmlns:xlink="http://www.w3.org/1999/xlink" x="0px" y="0px"
	 viewBox="0 0 656 612" style="enable-background:new 0 0 656 612;" xml:space="preserve">
<style type="text/css">
	.st0{fill:#9D9D9C;}
	.st1{fill:#FFFFFF;}
</style>
<circle class="st0" cx="334" cy="312" r="284.7"/>
<path class="st1" d="M471.4,241.5c0.2,3.1,0.2,6.1,0.2,9.2c0,93.7-71.3,201.7-201.7,201.7c-40.2,0-77.5-11.6-108.9-31.8
	c5.7,0.7,11.2,0.9,17.1,0.9c33.1,0,63.7-11.2,88-30.3c-31.2-0.7-57.3-21.1-66.3-49.2c4.4,0.7,8.8,1.1,13.4,1.1
	c6.4,0,12.7-0.9,18.7-2.4c-32.5-6.6-56.9-35.1-56.9-69.6v-0.9c9.4,5.3,20.4,8.6,32,9c-19.1-12.7-31.6-34.5-31.6-59
	c0-13.2,3.5-25.2,9.7-35.8c34.9,43,87.4,71.1,146.2,74.2c-1.1-5.3-1.8-10.8-1.8-16.2c0-39.1,31.6-70.9,70.9-70.9
	c20.4,0,38.9,8.6,51.8,22.4c16-3.1,31.4-9,45-17.1c-5.3,16.5-16.5,30.3-31.2,39.1c14.3-1.5,28.1-5.5,40.8-11
	C497.3,218.9,485.2,231.4,471.4,241.5L471.4,241.5z"/>
</svg>
