<?xml version="1.0" encoding="utf-8"?>
<!-- Generator: Adobe Illustrator 27.0.0, SVG Export Plug-In . SVG Version: 6.00 Build 0)  -->
<svg version="1.1" id="Capa_1" xmlns="http://www.w3.org/2000/svg" xmlns:xlink="http://www.w3.org/1999/xlink" x="0px" y="0px"
	 viewBox="0 0 512 512" style="enable-background:new 0 0 512 512;" xml:space="preserve">
<style type="text/css">
	.st0{fill:#FFFFFF;}
	.st1{fill:#9D9D9C;}
</style>
<circle class="st0" cx="256" cy="257.4" r="228.5"/>
<path class="st1" d="M484.5,257.4c0-126.2-102.3-228.5-228.5-228.5S27.5,131.2,27.5,257.4c0,114,83.6,208.6,192.8,225.7V323.4h-58
	v-66.1h58V207c0-57.3,34.1-88.9,86.3-88.9c25,0,51.2,4.5,51.2,4.5v56.2h-28.8c-28.4,0-37.2,17.6-37.2,35.7v42.9h63.4l-10.1,66.1
	h-53.2v159.7C400.9,466,484.5,371.4,484.5,257.4z"/>
</svg>
