<?xml version="1.0" encoding="utf-8"?>
<!-- Generator: Adobe Illustrator 27.0.0, SVG Export Plug-In . SVG Version: 6.00 Build 0)  -->
<svg version="1.1" id="Capa_1" xmlns="http://www.w3.org/2000/svg" xmlns:xlink="http://www.w3.org/1999/xlink" x="0px" y="0px"
	 viewBox="0 0 628 599" style="enable-background:new 0 0 628 599;" xml:space="preserve">
<style type="text/css">
	.st0{fill:#9D9D9C;}
	.st1{fill:#FFFFFF;}
</style>
<circle class="st0" cx="314" cy="299.5" r="284.7"/>
<path class="st1" d="M314,216.7c-45.8,0-82.8,37-82.8,82.8s37,82.8,82.8,82.8s82.8-37,82.8-82.8S359.9,216.7,314,216.7z M314,353.3
	c-29.6,0-53.8-24.1-53.8-53.8s24.1-53.8,53.8-53.8s53.8,24.1,53.8,53.8S343.7,353.3,314,353.3L314,353.3z M419.6,213.3
	c0,10.7-8.7,19.3-19.3,19.3c-10.7,0-19.3-8.7-19.3-19.3c0-10.7,8.7-19.3,19.3-19.3C410.9,194,419.6,202.6,419.6,213.3z M474.4,232.9
	c-1.2-25.9-7.1-48.8-26.1-67.7c-18.9-18.9-41.8-24.8-67.7-26.1c-26.7-1.5-106.6-1.5-133.3,0c-25.8,1.2-48.7,7.1-67.7,26
	s-24.8,41.8-26.1,67.7c-1.5,26.7-1.5,106.6,0,133.3c1.2,25.9,7.1,48.8,26.1,67.7c19,18.9,41.8,24.8,67.7,26.1
	c26.7,1.5,106.6,1.5,133.3,0c25.9-1.2,48.8-7.1,67.7-26.1c18.9-18.9,24.8-41.8,26.1-67.7C475.9,339.4,475.9,259.6,474.4,232.9
	L474.4,232.9z M440,394.7c-5.6,14.1-16.5,25-30.7,30.7c-21.3,8.4-71.7,6.5-95.2,6.5c-23.5,0-74,1.9-95.2-6.5
	c-14.1-5.6-25-16.5-30.7-30.7c-8.4-21.3-6.5-71.7-6.5-95.2s-1.9-74,6.5-95.2c5.6-14.1,16.5-25,30.7-30.7c21.3-8.4,71.7-6.5,95.2-6.5
	c23.5,0,74-1.9,95.2,6.5c14.1,5.6,25,16.5,30.7,30.7c8.4,21.3,6.5,71.7,6.5,95.2S448.4,373.5,440,394.7z"/>
</svg>
