<?xml version="1.0" encoding="utf-8"?>
<!-- Generator: Adobe Illustrator 27.0.0, SVG Export Plug-In . SVG Version: 6.00 Build 0)  -->
<svg version="1.1" id="Capa_1" xmlns="http://www.w3.org/2000/svg" xmlns:xlink="http://www.w3.org/1999/xlink" x="0px" y="0px"
	 viewBox="0 0 496 512" style="enable-background:new 0 0 496 512;" xml:space="preserve">
<style type="text/css">
	.st0{fill:#FFFFFF;}
	.st1{fill:#9D9D9C;}
</style>
<ellipse class="st0" cx="247.9" cy="256" rx="220.4" ry="220.5"/>
<path class="st1" d="M468.5,256c0,121.8-98.7,220.5-220.5,220.5c-22.8,0-44.6-3.5-65.3-9.9c9-14.7,22.4-38.7,27.4-57.8
	c2.7-10.3,13.7-52.5,13.7-52.5c7.2,13.7,28.2,25.3,50.5,25.3c66.5,0,114.4-61.2,114.4-137.2c0-72.8-59.5-127.3-135.9-127.3
	c-95.1,0-145.7,63.8-145.7,133.5c0,32.4,17.2,72.6,44.7,85.4c4.2,2,6.4,1.1,7.4-2.9c0.7-3,4.4-18,6.1-25c0.5-2.2,0.3-4.2-1.5-6.3
	c-9-11.1-16.3-31.4-16.3-50.3c0-48.6,36.8-95.7,99.6-95.7c54.1,0,92.1,36.9,92.1,89.7c0,59.7-30.1,101-69.4,101
	c-21.6,0-37.9-17.9-32.6-39.8c6.2-26.2,18.2-54.5,18.2-73.4c0-16.9-9.1-31-27.9-31c-22.1,0-39.9,22.9-39.9,53.5
	c0,19.6,6.6,32.7,6.6,32.7s-21.8,92.3-25.8,109.5c-4.4,19-2.7,45.9-0.8,63.3C85.6,429.3,27.5,349.4,27.5,256
	c0-121.8,98.7-220.5,220.5-220.5S468.5,134.2,468.5,256z"/>
</svg>
