<svg width="327" height="315" viewBox="0 0 327 315" fill="none" xmlns="http://www.w3.org/2000/svg">
<path d="M101.504 237.158L86.8594 222.509C82.831 218.479 81.4091 212.648 83.2101 207.243C84.6319 203.024 86.5277 197.525 88.8026 191.219H38.6597C34.5838 191.219 30.7922 189.039 28.7543 185.483C26.7164 181.927 26.7638 177.566 28.8491 174.058L53.731 132.102C59.8922 121.719 71.0298 115.367 83.0679 115.367H122.073C123.211 113.47 124.348 111.716 125.486 110.009C164.301 52.7406 222.122 50.8443 256.625 57.197C262.123 58.1925 266.388 62.5067 267.431 68.006C273.782 102.566 271.839 160.357 214.634 199.184C212.975 200.322 211.174 201.459 209.278 202.597V241.614C209.278 253.656 202.928 264.844 192.548 270.959L150.605 295.849C147.097 297.935 142.737 297.982 139.183 295.943C135.628 293.905 133.448 290.16 133.448 286.035V235.214C126.765 237.537 120.936 239.433 116.528 240.855C111.22 242.562 105.438 241.092 101.457 237.158H101.504ZM209.278 134.33C214.306 134.33 219.128 132.332 222.683 128.776C226.239 125.219 228.236 120.396 228.236 115.367C228.236 110.337 226.239 105.514 222.683 101.958C219.128 98.4012 214.306 96.4033 209.278 96.4033C204.25 96.4033 199.429 98.4012 195.873 101.958C192.318 105.514 190.321 110.337 190.321 115.367C190.321 120.396 192.318 125.219 195.873 128.776C199.429 132.332 204.25 134.33 209.278 134.33Z" fill="#46B0E5"/>
</svg>
